<svg width="35" height="35" viewBox="0 0 35 35" fill="none" xmlns="http://www.w3.org/2000/svg">
<path d="M17.8235 8.71686C19.8963 8.68199 21.8993 9.46558 23.3983 10.8977L27.5811 6.71496C24.9414 4.23579 21.4446 2.8746 17.8235 2.91666C12.3096 2.91454 7.26636 6.02359 4.79126 10.9508L9.66343 14.7292C10.8123 11.1823 14.0954 8.76325 17.8235 8.71686Z" fill="#FE4329"/>
<path d="M4.79138 10.9507C2.72319 15.072 2.72319 19.928 4.79138 24.0492L9.66348 20.2708C9.05372 18.4739 9.05372 16.5261 9.66348 14.7292L4.79138 10.9507Z" fill="#FE4329"/>
<path d="M22.7619 24.8911C18.6728 27.5159 13.2301 26.3287 10.6053 22.2395C10.2109 21.6249 9.89443 20.9636 9.66336 20.2708L4.79126 24.0492C7.26631 28.9764 12.3096 32.0855 17.8235 32.0833C21.3735 32.1796 24.8261 30.9157 27.4749 28.5502L22.7619 24.8911Z" fill="#FE4329"/>
<path d="M31.5583 14.8485H17.8235V20.4896H25.6719C25.3438 22.2926 24.2924 23.883 22.7619 24.8911C22.7573 24.8941 22.7525 24.8964 22.7479 24.8993C22.7525 24.8964 22.7573 24.8941 22.7619 24.8912L27.4749 28.5503L27.475 28.5502C30.3775 25.7547 31.9578 21.8591 31.8234 17.8315C31.8243 16.8312 31.7355 15.833 31.5583 14.8485Z" fill="#FE4329"/>
</svg>
