<svg width="35" height="35" viewBox="0 0 35 35" fill="none" xmlns="http://www.w3.org/2000/svg">
<path d="M32.0834 8.45833C30.9872 8.93389 29.828 9.24826 28.6417 9.39167C29.8932 8.64401 30.8311 7.46781 31.2813 6.08125C30.1053 6.78134 28.8179 7.2746 27.4751 7.53958C26.5775 6.56625 25.3823 5.91835 24.0769 5.69749C22.7714 5.47664 21.4296 5.69531 20.2619 6.31924C19.0941 6.94316 18.1664 7.93702 17.6244 9.14497C17.0823 10.3529 16.9565 11.7066 17.2667 12.9937C14.8888 12.8735 12.5628 12.2543 10.4398 11.1765C8.31676 10.0986 6.44423 8.58622 4.94383 6.7375C4.41757 7.6565 4.14105 8.69724 4.14175 9.75625C4.13988 10.7397 4.38123 11.7084 4.84431 12.576C5.30738 13.4437 5.97782 14.1833 6.79591 14.7292C5.84505 14.7033 4.9145 14.4481 4.08341 13.9854V14.0583C4.09054 15.4363 4.57341 16.7695 5.45033 17.8324C6.32726 18.8954 7.54441 19.6228 8.89591 19.8917C8.37566 20.05 7.83552 20.1335 7.29175 20.1396C6.91534 20.1352 6.53986 20.1011 6.16883 20.0375C6.5537 21.2229 7.29849 22.2588 8.29957 23.0011C9.30064 23.7434 10.5082 24.1552 11.7542 24.1792C9.65017 25.8348 7.05241 26.7383 4.37508 26.7458C3.88761 26.7474 3.40053 26.7182 2.91675 26.6583C5.65029 28.4233 8.83585 29.3602 12.0897 29.3562C14.335 29.3796 16.5626 28.9552 18.6421 28.108C20.7217 27.2608 22.6116 26.0077 24.2014 24.422C25.7913 22.8362 27.0492 20.9495 27.9017 18.8722C28.7543 16.7948 29.1843 14.5684 29.1667 12.3229C29.1667 12.075 29.1667 11.8125 29.1667 11.55C30.3111 10.6966 31.2981 9.65041 32.0834 8.45833Z" fill="#2AC6F7"/>
</svg>
